<svg width="198" height="138" viewBox="0 0 198 138" fill="none" xmlns="http://www.w3.org/2000/svg">
<path d="M155.784 5.55374L194.645 126.554C196.303 131.717 192.452 137 187.028 137H155.353C151.868 137 148.783 134.743 147.729 131.421L109.309 10.421C107.671 5.26241 111.521 0 116.934 0H148.167C151.643 0 154.721 2.2444 155.784 5.55374Z" fill="white"/>
<g opacity="0.25">
<path d="M116.119 96.4764L88.1916 7.0199C86.8878 2.84381 83.0208 0 78.646 0H73.1027C68.8427 0 65.3299 3.33836 65.1131 7.59289L61.5702 77.122C61.5237 78.0339 61.6337 78.9471 61.8954 79.8219L77.2927 131.293C78.3059 134.68 81.4219 137 84.9571 137H101.154C104.636 137 107.718 134.748 108.776 131.43L116.083 108.512C117.331 104.599 117.343 100.397 116.119 96.4764Z" fill="#DBDBDB"/>
<path d="M116.119 96.4764L88.1916 7.0199C86.8878 2.84381 83.0208 0 78.646 0H73.1027C68.8427 0 65.3299 3.33836 65.1131 7.59289L61.5702 77.122C61.5237 78.0339 61.6337 78.9471 61.8954 79.8219L77.2927 131.293C78.3059 134.68 81.4219 137 84.9571 137H101.154C104.636 137 107.718 134.748 108.776 131.43L116.083 108.512C117.331 104.599 117.343 100.397 116.119 96.4764Z" fill="url(#paint0_linear_862_1)"/>
<path d="M116.119 96.4764L88.1916 7.0199C86.8878 2.84381 83.0208 0 78.646 0H73.1027C68.8427 0 65.3299 3.33836 65.1131 7.59289L61.5702 77.122C61.5237 78.0339 61.6337 78.9471 61.8954 79.8219L77.2927 131.293C78.3059 134.68 81.4219 137 84.9571 137H101.154C104.636 137 107.718 134.748 108.776 131.43L116.083 108.512C117.331 104.599 117.343 100.397 116.119 96.4764Z" stroke="black"/>
</g>
<path d="M48.8866 0H80.1279C85.5222 0 89.3704 5.22977 87.7657 10.3799L49.7512 132.38C48.7095 135.723 45.6149 138 42.1134 138H10.8721C5.47777 138 1.62957 132.77 3.23432 127.62L41.2488 5.6201C42.2905 2.27711 45.3851 0 48.8866 0Z" fill="white"/>
<defs>
<linearGradient id="paint0_linear_862_1" x1="65" y1="75" x2="108" y2="91.5" gradientUnits="userSpaceOnUse">
<stop stop-color="#513535"/>
<stop offset="0.911458" stop-color="#65719B" stop-opacity="0"/>
</linearGradient>
</defs>
</svg>
